<?xml version="1.0" standalone="no"?>
<!DOCTYPE svg PUBLIC "-//W3C//DTD SVG 20010904//EN"
 "http://www.w3.org/TR/2001/REC-SVG-20010904/DTD/svg10.dtd">
<svg version="1.0" xmlns="http://www.w3.org/2000/svg"
 width="811.000000pt" height="529.000000pt" viewBox="0 0 811.000000 529.000000"
 preserveAspectRatio="xMidYMid meet">

<g transform="translate(0.000000,529.000000) scale(0.100000,-0.100000)"
fill="#000000" stroke="none">
<path d="M0 2645 l0 -2645 4055 0 4055 0 0 2645 0 2645 -4055 0 -4055 0 0
-2645z m2148 660 c179 -42 321 -174 373 -347 18 -58 21 -87 17 -171 -4 -86
-10 -112 -35 -168 -28 -61 -33 -66 -57 -62 -14 3 -26 7 -26 8 0 1 11 28 25 58
135 294 -84 637 -405 637 -203 0 -375 -130 -436 -329 -28 -94 -13 -235 37
-333 16 -31 17 -38 5 -38 -8 0 -21 -2 -29 -5 -19 -8 -66 98 -80 181 -8 48 -8
85 1 145 43 296 325 491 610 424z m2052 -265 c0 -82 2 -150 3 -150 2 0 19 8
38 17 49 25 137 29 196 9 97 -32 166 -137 165 -252 -1 -111 -53 -196 -147
-240 -73 -35 -137 -32 -237 11 -13 5 -18 3 -18 -9 0 -13 -11 -16 -55 -16 l-55
0 0 390 0 390 55 0 55 0 0 -150z m2453 -138 c18 -10 42 -33 54 -52 22 -31 23
-42 23 -236 l0 -204 -55 0 c-48 0 -55 2 -55 20 0 19 -2 18 -46 -5 -81 -43
-194 -27 -251 36 -29 33 -44 95 -34 142 22 94 78 127 228 135 l103 5 0 33 c0
42 -30 64 -88 64 -47 0 -74 -11 -110 -43 l-22 -21 -35 34 c-33 32 -34 34 -17
53 63 70 218 90 305 39z m-3263 4 c19 -10 43 -26 53 -34 17 -15 16 -18 -19
-47 l-38 -32 -35 24 c-30 21 -45 24 -94 21 -69 -5 -103 -27 -135 -89 -60 -115
19 -259 143 -259 39 0 105 26 105 41 0 18 27 8 55 -21 l29 -30 -24 -25 c-56
-59 -200 -71 -295 -24 -149 75 -185 281 -71 416 14 17 50 43 79 58 46 24 61
26 132 23 50 -3 93 -11 115 -22z m1643 13 c47 -13 102 -60 127 -109 15 -30 40
-135 40 -172 0 -5 -92 -8 -205 -8 -228 0 -227 1 -185 -67 45 -75 162 -94 235
-39 l35 27 35 -28 c19 -15 35 -31 35 -34 0 -16 -73 -69 -107 -78 -88 -25 -215
-4 -273 45 -79 67 -112 202 -76 311 19 56 81 123 136 147 41 18 148 21 203 5z
m378 -24 c4 -16 7 -24 8 -17 2 24 64 52 116 52 70 0 78 -7 62 -54 -13 -37 -14
-38 -64 -40 -58 -2 -79 -16 -104 -71 -15 -33 -19 -67 -19 -197 l0 -158 -55 0
-55 0 0 261 0 260 52 -3 c50 -3 53 -5 59 -33z m596 16 c40 -19 41 -19 46 0 4
16 14 19 56 19 l51 0 0 -395 0 -395 -55 0 -55 0 0 150 c0 83 -2 150 -3 150 -2
0 -19 -8 -38 -17 -19 -10 -63 -19 -99 -21 -56 -3 -73 1 -120 25 -95 49 -140
129 -140 248 1 146 110 255 255 255 37 0 76 -8 102 -19z m-2319 -153 c36 -87
68 -158 71 -158 3 0 35 71 71 158 l65 157 54 3 c48 3 53 1 48 -15 -10 -36
-230 -549 -263 -615 -65 -130 -121 -169 -208 -147 -26 6 -49 16 -52 20 -3 5 2
30 12 55 12 31 20 42 28 34 19 -19 66 -11 91 16 25 27 62 98 85 165 12 34 9
43 -80 255 -51 120 -94 223 -97 227 -3 4 21 7 52 5 l57 -3 66 -157z m-1785 14
c37 -32 8 -102 -43 -102 -27 0 -70 32 -70 51 0 24 23 61 42 68 26 9 45 5 71
-17z m340 17 c28 -15 37 -28 37 -58 0 -53 -62 -80 -102 -44 -38 35 -16 98 40
112 2 1 13 -4 25 -10z m-291 -287 c78 -16 92 -16 145 -3 33 8 109 14 178 15
130 1 195 -13 313 -65 l62 -28 0 -50 c0 -53 -1 -54 -37 -45 -17 5 -23 14 -23
34 0 24 -7 30 -52 49 -92 36 -170 52 -263 52 -50 0 -98 -2 -105 -5 -8 -3 -34
-10 -57 -16 l-43 -11 -2 -207 -3 -207 -27 -3 -28 -3 0 210 0 210 -42 13 c-26
8 -95 13 -173 13 -118 -1 -138 -3 -215 -31 -77 -27 -85 -32 -88 -57 -3 -24
-31 -47 -58 -47 -2 0 -4 24 -4 54 l0 55 81 31 c160 61 286 74 441 42z m-378
-253 c56 -44 70 -110 36 -166 -27 -45 -63 -65 -112 -65 -49 1 -85 24 -112 73
-26 48 -15 102 29 146 28 28 40 33 83 33 35 0 57 -6 76 -21z m1066 5 c97 -58
69 -225 -41 -234 -62 -5 -82 1 -115 36 -28 29 -34 43 -34 80 0 84 45 133 123
134 22 0 51 -7 67 -16z"/>
<path d="M4260 2821 c-66 -35 -97 -136 -69 -222 43 -127 203 -148 277 -36 34
52 37 145 6 198 -44 75 -138 101 -214 60z"/>
<path d="M6422 2624 c-16 -11 -22 -25 -22 -54 0 -65 55 -93 148 -74 51 10 72
38 72 94 l0 50 -88 0 c-63 0 -94 -4 -110 -16z"/>
<path d="M4865 2824 c-41 -21 -54 -35 -64 -72 l-10 -32 146 0 145 0 -7 28
c-19 77 -130 118 -210 76z"/>
<path d="M5837 2818 c-54 -32 -81 -92 -75 -169 3 -38 11 -69 25 -87 100 -135
283 -69 283 103 0 137 -122 217 -233 153z"/>
<path d="M1480 2213 c-56 -21 -68 -87 -24 -122 15 -12 34 -21 44 -21 34 0 70
39 70 75 0 49 -46 84 -90 68z"/>
<path d="M2538 2204 c-74 -40 -22 -153 59 -127 39 13 59 55 43 92 -6 16 -23
33 -36 40 -31 14 -33 14 -66 -5z"/>
</g>
</svg>
